<svg xmlns="http://www.w3.org/2000/svg"><symbol viewBox="0 0 85.8 85.8" id="check"><title>check</title><path d="M31 72.2L0 41l3.5-3.5L31 64.9l51.3-51.3 3.5 3.5"/></symbol><symbol viewBox="0 0 36 36" id="github"><title>github</title><path d="M36 18.5c0 8.1-5.2 15.1-12.3 17.5-.9.2-1.2-.4-1.2-.9V30c0-1.7-.6-2.8-1.2-3.4 4-.5 8.2-2 8.2-9.1 0-2-.7-3.7-1.9-5 .2-.5.8-2.3-.2-4.9 0 0-1.5-.5-4.9 1.9-1.4-.4-3-.6-4.5-.6s-3.1.2-4.5.6c-3.4-2.4-5-1.9-5-1.9-1 2.5-.4 4.4-.2 4.9-1.2 1.3-1.9 2.9-1.9 5 0 7.1 4.2 8.7 8.2 9.1-.5.5-1 1.3-1.1 2.5-1 .5-3.6 1.3-5.2-1.5 0 0-1-1.8-2.8-1.9 0 0-1.8 0-.1 1.1 0 0 1.2.6 2 2.7 0 0 1.1 3.3 6.1 2.2v3.4c0 .5-.3 1.1-1.2.9C5.2 33.5 0 26.6 0 18.5 0 8.3 8.1 0 18 0s18 8.3 18 18.5z"/></symbol><symbol viewBox="0 0 36 36" id="mail"><title>mail</title><path d="M18 0C8.1 0 0 8.1 0 18s8.1 18 18 18 18-8.1 18-18S27.9 0 18 0zM7.2 10.3h21.6c.3 0 .6.2.8.4L19.8 18c-1.3.9-2.1 1-3.5 0l-9.8-7.3c.1-.2.4-.4.7-.4zm-.9 1.8l8.4 6.2L6.3 24V12.1zm22.5 13.6H7.2c-.3 0-.5-.1-.7-.3l9.1-6.3c.8.5 1.4.9 2.4.9s1.6-.4 2.4-.9l9.1 6.3c-.2.1-.4.3-.7.3zm.9-1.6l-8.4-5.7 8.4-6.2v11.9z"/></symbol><symbol viewBox="0 0 40 40" id="navicon"><title>navicon</title><path d="M5 8h30v4H5zM5 18h30v4H5zM5 28h30v4H5z"/></symbol><symbol viewBox="20 20 32.1 32.1" id="play"><title>play</title><path d="M41.3 36.1l-7.7 7.7V28.3"/></symbol><symbol viewBox="0 0 36 36" id="twitter"><title>twitter</title><path d="M18 0C8.1 0 0 8.1 0 18s8.1 18 18 18 18-8.1 18-18S27.9 0 18 0zm10.1 12.8v.7c0 6.9-5.3 14.9-14.9 14.9-3 0-5.7-.9-8-2.3.4 0 .8.1 1.2.1 2.4 0 4.7-.8 6.5-2.2-2.3 0-4.2-1.6-4.9-3.6.3.1.6.1 1 .1.5 0 .9-.1 1.4-.2-2.4-.5-4.2-2.6-4.2-5.1v-.1c.7.4 1.5.6 2.4.7-1.4-.9-2.3-2.5-2.3-4.4 0-1 .3-1.9.7-2.6 2.6 3.2 6.4 5.2 10.8 5.5-.1-.4-.1-.8-.1-1.2 0-2.9 2.3-5.2 5.2-5.2 1.5 0 2.9.6 3.8 1.7 1.2-.5 2.3-1 3.3-1.6-.4 1.2-1.2 2.2-2.3 2.9 1.1-.1 2.1-.4 3-.8-.7 1-1.5 2-2.6 2.7z"/></symbol></svg>