<?xml version="1.0" encoding="UTF-8" standalone="no"?>
<!-- Generator: Adobe Illustrator 18.1.1, SVG Export Plug-In . SVG Version: 6.00 Build 0)  -->
<!DOCTYPE svg PUBLIC "-//W3C//DTD SVG 1.1//EN" "http://www.w3.org/Graphics/SVG/1.1/DTD/svg11.dtd">
<svg id="Ebene_1" xmlns="http://www.w3.org/2000/svg" enable-background="new 0 0 84.7 84.7" xml:space="preserve" viewBox="0 0 84.7 84.7" version="1.1" y="0px" x="0px"
	 width="84.7px" height="84.7px"
	 xmlns:xlink="http://www.w3.org/1999/xlink">
	<g>
		<g id="timer">
			<path d="m78.6 22.5l-36.3 20.3h-0.7v-41.9h0.5c5.7 0 11.3 1.2 16.2 3.3 5 2.1 9.5 5.2 13.2 8.9 2.8 2.8 5.2 6 7.1 9.4z" fill="#00C6FF"/>
			<rect y="72.8" x="40.7" height="9" width="2" fill="#666"/>
			<rect y="41.8" x="72.7" height="2" width="9" fill="#666"/>
			<rect transform="matrix(.866 .5 -.5 .866 13.663 -3.0614)" height="1.9" width="9.4" y="23" x="7.9" fill="#666"/>
			<rect transform="matrix(.5 .866 -.866 .5 22.965 -15.06)" height="1.9" width="9.4" y="11.4" x="19.8" fill="#666"/>
			<rect transform="matrix(.866 .5 -.5 .866 39.336 -28.169)" height="1.9" width="9.4" y="58.4" x="67.6" fill="#666"/>
			<rect transform="matrix(.5 .866 -.866 .5 92.843 -15.969)" height="1.9" width="9.4" y="71.5" x="55.6" fill="#666"/>
			<rect transform="matrix(.5 .866 -.866 .5 57.642 18.795)" height="9.4" width="1.9" y="54.6" x="11.6" fill="#666"/>
			<rect transform="matrix(.866 .5 -.5 .866 39.359 -2.7971)" height="9.4" width="1.9" y="67.4" x="24" fill="#666"/>
			<rect y="41.8" x="2.7" height="2" width="10" fill="#666"/>
			<path d="m81.4 25.9c-2.1-5-5.2-9.6-9.1-13.5s-8.4-6.9-13.5-9.1c-5.2-2.2-10.7-3.3-16.5-3.3-5.7 0-11.3 1.1-16.5 3.3-5 2.1-9.6 5.2-13.5 9.1s-6.9 8.4-9.1 13.5c-2.1 5.2-3.2 10.7-3.2 16.4s1.1 11.3 3.3 16.5c2.1 5 5.2 9.6 9.1 13.5s8.4 6.9 13.5 9.1c5.2 2.2 10.8 3.3 16.5 3.3s11.3-1.1 16.5-3.3c5-2.1 9.6-5.2 13.5-9.1s6.9-8.4 9.1-13.5c2.2-5.2 3.3-10.8 3.3-16.5-0.1-5.7-1.2-11.2-3.4-16.4zm-10.4-12.2c2.5 2.5 4.7 5.3 6.4 8.4l-32.9 19c-0.1-0.2-0.2-0.4-0.4-0.5-0.2-0.2-0.4-0.4-0.7-0.5s-0.7-0.2-0.7-0.2v-38.2c5 0.4 10.6 1.2 15.5 3.3 4.8 2 9 5 12.8 8.7zm8.6 44.4c-2 4.8-5 9.1-8.7 12.9-3.7 3.7-8 6.6-12.9 8.7-5 2.1-10.3 3.2-15.8 3.2s-10.8-1.1-15.8-3.2c-4.8-2-9.1-5-12.9-8.7-3.7-3.7-6.6-8-8.7-12.9-2.1-5-3.2-10.3-3.2-15.8s1.1-10.8 3.2-15.8c2-4.8 5-9.1 8.7-12.9 3.7-3.7 8-6.6 12.8-8.7 4.8-2 10.1-3.2 15.1-3.3v38.4s-0.2 0.1-0.3 0.1c-0.3 0.1-0.6 0.3-0.8 0.5s-0.4 0.5-0.5 0.8-0.2 0.6-0.2 1c0 0.3 0.1 0.7 0.2 1s0.3 0.6 0.5 0.8 0.5 0.4 0.8 0.5 0.6 0.2 1 0.2c0.3 0 0.7-0.1 1-0.2s0.6-0.3 0.8-0.5 0.4-0.5 0.5-0.8 0.2-0.6 0.2-1v-0.3l33.2-19v0.1c0.7 1.2 1.1 2.2 1.6 3.5 2.1 5 3.2 10.3 3.2 15.8 0.2 5.3-0.9 10.6-3 15.6z" fill="#666"/>
		</g>
	</g>
</svg>
