<?xml version="1.0" encoding="utf-8"?>
<!-- Generator: Adobe Illustrator 18.1.1, SVG Export Plug-In . SVG Version: 6.00 Build 0)  -->
<!DOCTYPE svg PUBLIC "-//W3C//DTD SVG 1.1//EN" "http://www.w3.org/Graphics/SVG/1.1/DTD/svg11.dtd" [
    <!ENTITY ns_extend "http://ns.adobe.com/Extensibility/1.0/">
    <!ENTITY ns_ai "http://ns.adobe.com/AdobeIllustrator/10.0/">
    <!ENTITY ns_graphs "http://ns.adobe.com/Graphs/1.0/">
    <!ENTITY ns_vars "http://ns.adobe.com/Variables/1.0/">
    <!ENTITY ns_imrep "http://ns.adobe.com/ImageReplacement/1.0/">
    <!ENTITY ns_sfw "http://ns.adobe.com/SaveForWeb/1.0/">
    <!ENTITY ns_custom "http://ns.adobe.com/GenericCustomNamespace/1.0/">
    <!ENTITY ns_adobe_xpath "http://ns.adobe.com/XPath/1.0/">
]>
<svg version="1.1" id="Ebene_1"
     xmlns="http://www.w3.org/2000/svg" xmlns:xlink="http://www.w3.org/1999/xlink" x="0px" y="0px" viewBox="0 0 73.2 73.8"
     enable-background="new 0 0 73.2 73.8" xml:space="preserve">
     <g>
        <polygon fill="#00C6FF" points="73.2,73.8 0,0 43.7,0 73.2,29.2      "/>
        <g>
            <path fill="#FFFFFF" d="M37.6,13.2c-0.3-0.1-0.7-0.2-1-0.4c-0.3-0.2-0.7-0.4-1-0.7c-0.4-0.4-0.6-0.8-0.8-1.2
                c-0.1-0.4-0.2-0.8-0.1-1.2c0.1-0.4,0.2-0.8,0.5-1.2c0.2-0.4,0.6-0.8,0.9-1.2c0.8-0.8,1.7-1.3,2.5-1.4C39.4,6,40.1,6.3,40.8,7
                c0.3,0.3,0.6,0.6,0.7,0.9c0.2,0.3,0.3,0.5,0.4,0.8L41,9.1c-0.1-0.2-0.2-0.5-0.3-0.7S40.4,8,40.2,7.7c-0.9-0.9-2-0.8-3.3,0.5
                c-0.3,0.3-0.5,0.5-0.6,0.8c-0.2,0.3-0.3,0.6-0.4,0.9c-0.1,0.3,0,0.6,0,0.9c0.1,0.3,0.3,0.6,0.5,0.9c0.2,0.2,0.5,0.4,0.7,0.5
                c0.3,0.1,0.5,0.2,0.7,0.2L37.6,13.2z"/>
            <path fill="#FFFFFF" d="M40.3,11.7c0.8-0.8,1.7-1.3,2.5-1.4s1.6,0.2,2.3,0.9c0.4,0.4,0.6,0.8,0.8,1.1c0.2,0.4,0.2,0.8,0.2,1.2
                c0,0.4-0.2,0.8-0.4,1.2c-0.2,0.4-0.5,0.8-0.9,1.2c-0.8,0.8-1.7,1.3-2.5,1.4c-0.8,0.1-1.6-0.2-2.3-0.9c-0.4-0.4-0.6-0.8-0.8-1.1
                c-0.2-0.4-0.2-0.8-0.2-1.2c0-0.4,0.2-0.8,0.4-1.2C39.6,12.4,39.9,12,40.3,11.7z M41.1,12.5c-0.3,0.3-0.5,0.5-0.6,0.8
                c-0.2,0.3-0.3,0.6-0.4,0.8c-0.1,0.3-0.1,0.6,0,0.8s0.2,0.5,0.5,0.8c0.9,0.9,2,0.7,3.2-0.6c0.3-0.3,0.5-0.5,0.7-0.8
                c0.2-0.3,0.3-0.6,0.4-0.8c0.1-0.3,0.1-0.6,0-0.8c-0.1-0.3-0.2-0.5-0.5-0.8C43.5,11,42.4,11.2,41.1,12.5z"/>
            <path fill="#FFFFFF" d="M46.3,22.6l2.8-2.8c0.3-0.3,0.5-0.5,0.7-0.7c0.2-0.2,0.3-0.4,0.4-0.6c0.1-0.2,0.1-0.4,0-0.6
                c-0.1-0.2-0.2-0.4-0.4-0.6c-0.3-0.3-0.6-0.5-1-0.5c-0.4,0-0.8,0.1-1.1,0.3l-3.4,3.4l-0.8-0.8l5-5l0.6,0.6l-0.5,0.8l0,0
                c0.4,0,0.8,0,1.1,0.1s0.7,0.3,1.1,0.7c0.3,0.3,0.5,0.6,0.6,1s0,0.7-0.2,1.1c0.4-0.1,0.8-0.1,1.2,0c0.4,0.1,0.8,0.4,1.1,0.7
                c0.3,0.3,0.5,0.5,0.6,0.8c0.1,0.3,0.2,0.5,0.1,0.8c0,0.3-0.2,0.6-0.4,0.9c-0.2,0.3-0.5,0.7-0.9,1.1l-3,3l-0.8-0.8l3-3
                c0.2-0.2,0.4-0.5,0.6-0.7c0.2-0.2,0.3-0.4,0.3-0.6c0-0.2,0-0.4,0-0.5c-0.1-0.2-0.2-0.4-0.4-0.6c-0.3-0.3-0.7-0.5-1-0.5
                c-0.4,0-0.8,0.1-1.2,0.4l-3.3,3.3L46.3,22.6z"/>
            <path fill="#FFFFFF" d="M56.6,23l0.8,0.8l-5,5l-0.8-0.8L56.6,23z M57.9,21.3c0.2-0.2,0.3-0.2,0.5-0.2c0.2,0,0.4,0.1,0.6,0.2
                c0.2,0.2,0.2,0.3,0.2,0.6c0,0.2-0.1,0.4-0.2,0.6s-0.3,0.2-0.5,0.2c-0.2,0-0.4-0.1-0.6-0.3c-0.2-0.2-0.2-0.3-0.2-0.5
                C57.7,21.6,57.8,21.5,57.9,21.3z"/>
            <path fill="#FFFFFF" d="M57.3,33.6l2.8-2.8c0.5-0.5,0.8-1,0.9-1.4c0.1-0.4,0-0.8-0.4-1.2c-0.3-0.3-0.7-0.5-1.1-0.6
                c-0.4,0-0.8,0-1.2,0.2l-3.4,3.4l-0.8-0.8l5-5l0.6,0.6l-0.5,0.8l0,0c0.4-0.1,0.8,0,1.2,0.1c0.4,0.1,0.8,0.4,1.2,0.8
                c0.3,0.3,0.5,0.5,0.6,0.8c0.1,0.3,0.2,0.5,0.2,0.8c0,0.3-0.1,0.6-0.3,0.9c-0.2,0.3-0.5,0.7-0.9,1.1l-3,3L57.3,33.6z"/>
            <path fill="#FFFFFF" d="M63.1,39.8c-0.6,0.6-1.3,0.9-1.9,0.9c-0.6,0-1.3-0.4-2-1.1c-0.4-0.4-0.7-0.7-0.9-1
                c-0.2-0.3-0.3-0.6-0.4-0.8l0.9-0.5c0.1,0.2,0.2,0.4,0.3,0.7c0.1,0.2,0.3,0.5,0.6,0.8c0.3,0.3,0.5,0.5,0.8,0.6
                c0.2,0.1,0.4,0.2,0.7,0.2c0.2,0,0.4-0.1,0.7-0.2c0.2-0.1,0.5-0.3,0.7-0.6l0.5-0.5l0,0c-0.3,0.1-0.6,0-0.9-0.1
                c-0.3-0.1-0.6-0.3-1-0.6c-0.7-0.7-0.9-1.4-0.8-2.1c0.1-0.7,0.6-1.5,1.5-2.4c0.8-0.8,1.7-1.3,2.5-1.3c0.8,0,1.7,0.3,2.4,1.1
                c0.4,0.4,0.7,0.7,0.9,1.1c0.2,0.3,0.4,0.6,0.5,0.9L63.1,39.8z M61.9,37c0.3,0.3,0.7,0.5,1,0.5c0.4,0,0.8-0.1,1.2-0.4l2.5-2.5
                c-0.1-0.4-0.4-0.8-0.8-1.2c-0.4-0.4-1-0.6-1.5-0.6s-1.2,0.4-1.8,1c-0.3,0.3-0.5,0.6-0.7,0.8c-0.2,0.3-0.3,0.5-0.4,0.8
                c-0.1,0.3-0.1,0.5,0,0.8C61.5,36.6,61.7,36.8,61.9,37z"/>
            <path fill="#FFFFFF" d="M34.3,24.9c0.2-0.2,0.3-0.4,0.3-0.6c0-0.2-0.1-0.5-0.2-0.7c-0.1-0.3-0.2-0.5-0.4-0.8
                c-0.1-0.3-0.2-0.6-0.3-0.8c-0.1-0.3-0.1-0.6,0-0.9c0.1-0.3,0.2-0.6,0.5-0.9c0.5-0.5,1-0.7,1.5-0.6c0.5,0.1,1,0.3,1.5,0.8
                c0.4,0.4,0.6,0.7,0.8,1c0.2,0.3,0.3,0.6,0.4,0.9l-0.8,0.5c-0.1-0.2-0.2-0.5-0.4-0.7c-0.2-0.3-0.4-0.5-0.6-0.8
                c-0.3-0.3-0.6-0.5-0.8-0.5c-0.2,0-0.5,0.1-0.7,0.3c-0.2,0.2-0.2,0.4-0.2,0.6c0,0.2,0.1,0.4,0.2,0.7c0.1,0.3,0.2,0.5,0.4,0.8
                c0.1,0.3,0.2,0.6,0.3,0.9c0.1,0.3,0.1,0.6,0,0.9c-0.1,0.3-0.2,0.6-0.5,0.9c-0.2,0.2-0.4,0.4-0.7,0.5c-0.3,0.1-0.5,0.2-0.8,0.2
                s-0.6-0.1-0.9-0.2s-0.6-0.4-0.9-0.6c-0.4-0.4-0.7-0.7-0.9-1.1c-0.2-0.3-0.3-0.6-0.4-0.9l0.9-0.4c0.1,0.2,0.2,0.5,0.4,0.8
                c0.2,0.3,0.4,0.6,0.6,0.9c0.3,0.3,0.6,0.5,0.9,0.5C33.7,25.3,34,25.2,34.3,24.9z"/>
            <path fill="#FFFFFF" d="M37.2,25.5c0.8-0.8,1.7-1.3,2.5-1.4c0.8-0.1,1.6,0.2,2.3,0.9c0.4,0.4,0.6,0.8,0.8,1.1
                c0.2,0.4,0.2,0.8,0.2,1.2c0,0.4-0.2,0.8-0.4,1.2c-0.2,0.4-0.5,0.8-0.9,1.2c-0.8,0.8-1.7,1.3-2.5,1.4c-0.8,0.1-1.6-0.2-2.3-0.9
                c-0.4-0.4-0.6-0.8-0.8-1.1c-0.2-0.4-0.2-0.8-0.2-1.2s0.2-0.8,0.4-1.2C36.4,26.2,36.8,25.8,37.2,25.5z M38,26.3
                c-0.3,0.2-0.5,0.5-0.6,0.8c-0.2,0.3-0.3,0.6-0.4,0.8c-0.1,0.3-0.1,0.6,0,0.8c0.1,0.3,0.2,0.5,0.5,0.8c0.9,0.9,2,0.7,3.2-0.6
                c0.3-0.3,0.5-0.5,0.7-0.8c0.2-0.3,0.3-0.6,0.4-0.8c0.1-0.3,0.1-0.6,0-0.8c-0.1-0.3-0.2-0.5-0.5-0.8C40.3,24.8,39.2,25,38,26.3z"
                />
            <path fill="#FFFFFF" d="M42.5,30.8c0.8-0.8,1.7-1.3,2.5-1.4s1.6,0.2,2.3,0.9c0.4,0.4,0.6,0.8,0.8,1.1c0.2,0.4,0.2,0.8,0.2,1.2
                c0,0.4-0.2,0.8-0.4,1.2c-0.2,0.4-0.5,0.8-0.9,1.2c-0.8,0.8-1.7,1.3-2.5,1.4c-0.8,0.1-1.6-0.2-2.3-0.9c-0.4-0.4-0.6-0.8-0.8-1.1
                s-0.2-0.8-0.2-1.2s0.2-0.8,0.4-1.2C41.8,31.6,42.1,31.2,42.5,30.8z M43.3,31.6c-0.3,0.3-0.5,0.5-0.6,0.8
                c-0.2,0.3-0.3,0.6-0.4,0.8c-0.1,0.3-0.1,0.6,0,0.8s0.2,0.5,0.5,0.8c0.9,0.9,2,0.7,3.2-0.6c0.3-0.3,0.5-0.5,0.7-0.8
                c0.2-0.3,0.3-0.6,0.4-0.8c0.1-0.3,0.1-0.6,0-0.8c-0.1-0.3-0.2-0.5-0.5-0.8C45.6,30.1,44.6,30.3,43.3,31.6z"/>
            <path fill="#FFFFFF" d="M48.7,42l2.8-2.8c0.5-0.5,0.8-1,0.9-1.4c0.1-0.4,0-0.8-0.4-1.2c-0.3-0.3-0.7-0.5-1.1-0.6
                c-0.4,0-0.8,0-1.2,0.2l-3.4,3.4l-0.8-0.8l4.9-5l0.6,0.6l-0.5,0.8l0,0c0.4-0.1,0.8,0,1.2,0.1c0.4,0.1,0.8,0.4,1.2,0.8
                c0.3,0.3,0.5,0.5,0.6,0.8c0.1,0.3,0.2,0.5,0.2,0.8c0,0.3-0.1,0.6-0.3,0.9c-0.2,0.3-0.5,0.7-0.9,1.1l-3,3L48.7,42z"/>
        </g>
    </g>
</svg>