<?xml version="1.0" encoding="utf-8"?>
<!-- Generator: Adobe Illustrator 18.1.1, SVG Export Plug-In . SVG Version: 6.00 Build 0)  -->
<!DOCTYPE svg PUBLIC "-//W3C//DTD SVG 1.1//EN" "http://www.w3.org/Graphics/SVG/1.1/DTD/svg11.dtd" [
	<!ENTITY ns_extend "http://ns.adobe.com/Extensibility/1.0/">
	<!ENTITY ns_ai "http://ns.adobe.com/AdobeIllustrator/10.0/">
	<!ENTITY ns_graphs "http://ns.adobe.com/Graphs/1.0/">
	<!ENTITY ns_vars "http://ns.adobe.com/Variables/1.0/">
	<!ENTITY ns_imrep "http://ns.adobe.com/ImageReplacement/1.0/">
	<!ENTITY ns_sfw "http://ns.adobe.com/SaveForWeb/1.0/">
	<!ENTITY ns_custom "http://ns.adobe.com/GenericCustomNamespace/1.0/">
	<!ENTITY ns_adobe_xpath "http://ns.adobe.com/XPath/1.0/">
]>
<svg version="1.1" id="Ebene_1" xmlns:x="&ns_extend;" xmlns:i="&ns_ai;" xmlns:graph="&ns_graphs;"
	 xmlns="http://www.w3.org/2000/svg" xmlns:xlink="http://www.w3.org/1999/xlink" x="0px" y="0px" viewBox="-264.6 280.3 239 44.6"
	 enable-background="new -264.6 280.3 239 44.6" xml:space="preserve">
	<g>
		<path fill="#FFFFFF" d="M-191,317.1L-191,317.1c-0.1,0.2-0.2,0.2-0.3,0.2c0,0,0,0,0,0l0,0h0l0,0h0c-0.1,0-0.2,0.1-0.3,0.1h0h0h0
			h0h-0.1h-0.1h-0.1h0h0h0c-0.1,0-0.1,0-0.1,0h-0.1c-0.1,0-0.2-0.1-0.3-0.2c0,0-0.1,0-0.1-0.1c0,0-0.1,0-0.1-0.1l-0.1-0.1h0l0,0v0
			c0,0,0,0,0,0c0,0,0,0,0,0v0c0,0,0,0,0,0c0,0,0,0,0,0h0c0-0.1,0-0.1,0-0.1v0l0-0.1c0,0,0,0,0-0.1c0,0,0,0,0-0.1l-3.5-10.7
			l-3.5,10.7c0,0,0,0.1,0,0.1h0c0,0.1,0,0.1,0,0.1v0l0,0.1c0,0,0,0.1,0,0.1c0,0,0,0,0,0l0,0l0,0l0,0l-0.1,0.1h0
			c-0.1,0.1-0.1,0.1-0.2,0.1c-0.1,0.1-0.2,0.1-0.3,0.2h-0.1h0c0,0-0.1,0-0.1,0h0h0h-0.1h0h0h-0.1h0h0h0h0h0c-0.1,0-0.2-0.1-0.3-0.1
			h0h0v0h0l0,0c0,0,0,0,0,0h0c-0.1,0-0.1-0.1-0.2-0.2v0h0c0,0,0,0,0,0c0,0,0,0,0,0v0l0,0l0,0l-0.1-0.2v-0.1c0,0,0,0,0,0v0v0v0
			c0,0,0-0.1,0-0.1l-3.5-28.1c-0.1-0.4,0-0.7,0.3-1.1s0.6-0.5,1-0.6c0.4-0.1,0.7,0,1.1,0.3c0.3,0.2,0.5,0.6,0.6,1l2.7,21.6l2.9-8.8
			l0,0v0c0,0,0,0,0,0v0v0l0.1-0.1v0l0,0l0,0c0,0,0,0,0,0v0h0v0l0,0c0,0,0,0,0,0h0v0l0,0c0.1-0.1,0.1-0.1,0.2-0.1
			c0.1,0,0.1,0,0.2-0.1h0.1l0,0h0h0h0h0v0h0h0h0h0h0h0h0h0h0h0h0l0,0h0h0.1c0,0,0,0,0,0c0,0,0,0,0,0h0.1c0.1,0.1,0.1,0.1,0.2,0.1
			c0.1,0,0.1,0,0.2,0.1l0,0c0,0,0,0,0,0h0v0h0v0c0,0,0,0,0,0h0v0l0,0l0,0c0,0,0,0,0,0v0v0h0v0v0c0,0,0,0,0,0l0,0v0v0l2.9,8.8
			l2.7-21.6c0.1-0.4,0.2-0.7,0.6-1c0.3-0.3,0.7-0.3,1.1-0.3c0.4,0.1,0.7,0.2,1,0.6c0.3,0.3,0.4,0.7,0.3,1.1l-3.5,28.1
			c0,0,0,0.1,0,0.1v0v0l0,0v0c0,0,0,0.1,0,0.1c0,0.1,0,0.1-0.1,0.2c0,0,0,0.1,0,0.1v0h0L-191,317.1L-191,317.1L-191,317.1
			L-191,317.1C-191,317.2-191,317.1-191,317.1z"/>
		<path fill="#FFFFFF" d="M-167.9,286.6c0.4,0,0.7,0.1,1,0.4c0.3,0.3,0.4,0.6,0.4,1v28.1c0,0.4-0.1,0.7-0.4,1
			c-0.3,0.3-0.6,0.4-1,0.4c-0.4,0-0.8-0.1-1.1-0.4c-0.3-0.3-0.4-0.6-0.4-1v-12.6h-8.8v12.6c0,0.4-0.1,0.7-0.4,1
			c-0.3,0.3-0.6,0.4-1.1,0.4c-0.4,0-0.7-0.1-1-0.4c-0.3-0.3-0.4-0.6-0.4-1v-28.1c0-0.4,0.1-0.7,0.4-1c0.3-0.3,0.6-0.4,1-0.4
			c0.4,0,0.8,0.1,1.1,0.4c0.3,0.3,0.4,0.6,0.4,1v12.6h8.8v-12.6c0-0.4,0.1-0.7,0.4-1C-168.7,286.8-168.3,286.6-167.9,286.6z"/>
		<path fill="#FFFFFF" d="M-158.1,317.6c-0.4,0-0.8-0.1-1-0.4c-0.3-0.3-0.4-0.6-0.4-1v-28.1c0-0.4,0.1-0.7,0.4-1
			c0.3-0.3,0.6-0.4,1-0.4c0.4,0,0.7,0.1,1,0.4c0.3,0.3,0.4,0.6,0.4,1v28.1c0,0.4-0.1,0.7-0.4,1
			C-157.4,317.5-157.7,317.6-158.1,317.6z"/>
		<path fill="#FFFFFF" d="M-136.1,287c0.3,0.3,0.4,0.6,0.4,1.1c0,0.4-0.1,0.7-0.4,1c-0.3,0.3-0.6,0.4-1,0.4h-5v26.6
			c0,0.4-0.1,0.8-0.4,1c-0.3,0.3-0.6,0.4-1,0.4c-0.4,0-0.7-0.1-1-0.4c-0.3-0.3-0.4-0.6-0.4-1v-26.6h-5.1c-0.4,0-0.8-0.1-1.1-0.4
			c-0.3-0.3-0.4-0.6-0.4-1c0-0.4,0.1-0.8,0.4-1.1c0.3-0.3,0.6-0.4,1.1-0.4h13.1C-136.8,286.6-136.4,286.8-136.1,287z"/>
		<path fill="#FFFFFF" d="M-117.5,315.1c0.3,0.3,0.4,0.6,0.4,1.1c0,0.4-0.1,0.7-0.4,1c-0.3,0.3-0.6,0.4-1.1,0.4h-11.1
			c-0.4,0-0.8-0.1-1.1-0.4c-0.3-0.3-0.4-0.6-0.4-1v-28.1c0-0.4,0.1-0.7,0.4-1c0.3-0.3,0.6-0.4,1.1-0.4h11.1c0.4,0,0.8,0.1,1.1,0.4
			c0.3,0.3,0.4,0.6,0.4,1c0,0.4-0.1,0.8-0.4,1.1c-0.3,0.3-0.6,0.4-1.1,0.4h-9.6v11.1h7.2c0.4,0,0.8,0.1,1,0.4
			c0.3,0.3,0.4,0.6,0.4,1.1c0,0.4-0.1,0.7-0.4,1c-0.3,0.3-0.6,0.4-1,0.4h-7.2v11h9.6C-118.1,314.7-117.7,314.8-117.5,315.1z"/>
		<path fill="#FFFFFF" d="M-105,318.1c-2.1,0-3.8-0.7-5-2c-0.9-1-1.5-2.3-1.8-4c-0.1-0.5-0.1-0.9-0.1-1.3c0-0.4,0-0.6,0-0.8v-16.3
			c0-1.3,0.2-2.4,0.6-3.3c0.4-0.9,0.9-1.7,1.6-2.4c0.6-0.6,1.4-1.1,2.2-1.4c0.8-0.3,1.6-0.4,2.5-0.4c0.5,0,1.2,0.1,2,0.3
			c0.9,0.2,1.7,0.7,2.5,1.4c0.3,0.2,0.6,0.5,0.8,0.9c0.3,0.3,0.5,0.7,0.8,1.2c0.2,0.5,0.4,1,0.6,1.6s0.2,1.3,0.2,2.1v16.6
			c0,0.1,0,0.3,0,0.7c0,0.3,0,0.8-0.1,1.2c-0.3,1.5-0.9,2.8-1.8,3.8C-101.2,317.5-102.8,318.1-105,318.1z M-108.8,310.3
			c0,0,0,0.2,0,0.5c0,0.3,0,0.6,0.1,1c0.1,0.4,0.2,0.8,0.3,1.3c0.2,0.4,0.4,0.8,0.7,1.2c0.6,0.7,1.5,1,2.8,1c1.3,0,2.2-0.3,2.9-1
			c0.3-0.3,0.5-0.7,0.7-1.1c0.2-0.4,0.3-0.8,0.4-1.1c0.1-0.4,0.1-0.7,0.1-0.9c0-0.3,0-0.4,0-0.4v-0.1v-16.6c0-1.1-0.2-1.9-0.5-2.5
			s-0.7-1-1.2-1.4c-0.4-0.3-0.9-0.5-1.4-0.6c-0.5-0.1-0.8-0.1-1-0.1c-1,0-1.9,0.3-2.6,1c-0.9,0.8-1.3,2-1.3,3.6v16.4L-108.8,310.3
			L-108.8,310.3z"/>
		<path fill="#FFFFFF" d="M-84.4,318.1c-2.1,0-3.7-0.7-4.9-2c-0.9-1.1-1.5-2.4-1.8-4c-0.1-0.5-0.1-0.9-0.1-1.3c0-0.4,0-0.6,0-0.8
			v-22c0-0.4,0.1-0.7,0.4-1c0.3-0.3,0.6-0.4,1-0.4c0.4,0,0.8,0.1,1.1,0.4c0.3,0.3,0.4,0.6,0.4,1v22v0.1c0,0,0,0.2,0,0.5
			c0,0.3,0,0.6,0.1,1c0.1,0.4,0.2,0.8,0.3,1.3c0.2,0.4,0.4,0.8,0.7,1.2c0.6,0.7,1.5,1,2.8,1c1.3,0,2.3-0.3,2.9-1
			c0.3-0.3,0.5-0.7,0.7-1.1c0.2-0.4,0.3-0.8,0.3-1.2c0.1-0.4,0.1-0.8,0.1-1.3v-0.1v-22.2c0-0.4,0.1-0.8,0.4-1.1
			c0.3-0.3,0.6-0.4,1.1-0.4c0.4,0,0.7,0.1,1,0.4c0.3,0.3,0.4,0.6,0.4,1.1v22.2c0,0.1,0,0.3,0,0.7c0,0.3-0.1,0.8-0.1,1.2
			c-0.2,1.5-0.8,2.8-1.8,3.8C-80.6,317.4-82.3,318.1-84.4,318.1z"/>
		<path fill="#FFFFFF" d="M-56.8,287c0.3,0.3,0.4,0.6,0.4,1.1c0,0.4-0.1,0.7-0.4,1c-0.3,0.3-0.6,0.4-1,0.4h-5v26.6
			c0,0.4-0.1,0.8-0.4,1c-0.3,0.3-0.6,0.4-1,0.4c-0.4,0-0.7-0.1-1-0.4c-0.3-0.3-0.4-0.6-0.4-1v-26.6h-5.1c-0.4,0-0.8-0.1-1.1-0.4
			c-0.3-0.3-0.4-0.6-0.4-1c0-0.4,0.1-0.8,0.4-1.1c0.3-0.3,0.6-0.4,1.1-0.4h13.1C-57.4,286.6-57.1,286.8-56.8,287z"/>
		<g enable-background="new    ">
			<path fill="#FFFFFF" d="M-54.1,316.6c0.2,0,0.4,0.1,0.5,0.2c0.1,0.1,0.2,0.3,0.2,0.5c0,0.2-0.1,0.4-0.2,0.5
				c-0.1,0.1-0.3,0.2-0.5,0.2s-0.4-0.1-0.5-0.2c-0.1-0.1-0.2-0.3-0.2-0.5c0-0.2,0.1-0.4,0.2-0.5C-54.5,316.7-54.4,316.6-54.1,316.6
				z"/>
			<path fill="#FFFFFF" d="M-46.7,317.9c-0.3,0-0.5-0.1-0.5-0.4v-30.1c0-0.3,0.2-0.4,0.5-0.4s0.5,0.1,0.5,0.4v30.1
				C-46.2,317.7-46.3,317.9-46.7,317.9z"/>
			<path fill="#FFFFFF" d="M-25.6,311.2c0,0.1,0,0.3,0,0.7s-0.1,0.8-0.2,1.3c-0.1,0.5-0.3,1.1-0.5,1.7c-0.2,0.6-0.6,1.1-1.1,1.7
				c-1.1,1.2-2.6,1.7-4.6,1.7c-1.9,0-3.4-0.6-4.5-1.7c-0.5-0.5-0.8-1.1-1.1-1.7c-0.2-0.6-0.4-1.2-0.5-1.8c-0.1-0.6-0.1-1-0.1-1.4
				c0-0.4,0-0.6,0-0.7v-17.5c0-2.3,0.7-4,2-5.3c0.6-0.5,1.2-0.9,1.9-1.1c0.7-0.3,1.4-0.4,2.2-0.4s1.5,0.1,2.2,0.4
				c0.7,0.3,1.4,0.6,1.9,1.1c1.4,1.3,2.2,3.1,2.2,5.4V311.2z M-26.5,293.5c0-1.1-0.2-2-0.5-2.8s-0.8-1.4-1.3-1.9
				c-0.5-0.5-1.1-0.8-1.8-1c-0.7-0.2-1.3-0.3-1.9-0.3c-0.7,0-1.3,0.1-1.9,0.4c-0.6,0.2-1.2,0.6-1.7,1.1c-0.5,0.5-0.9,1.1-1.2,1.9
				s-0.4,1.7-0.4,2.7V311c0,0.7,0,1.3,0.1,1.8c0.1,0.5,0.2,1,0.4,1.6c0.2,0.6,0.5,1.1,0.9,1.6c0.9,1,2.2,1.4,3.8,1.4
				c1.7,0,3-0.5,3.9-1.5c0.4-0.5,0.7-1,0.9-1.5c0.2-0.5,0.3-1,0.4-1.5c0.1-0.5,0.1-1,0.1-1.7L-26.5,293.5z"/>
		</g>
	</g>
	<g>
		<path fill="#FFFFFF" d="M-242.3,325c-12.3,0-22.3-10-22.3-22.3c0-12.3,10-22.3,22.3-22.3c12.3,0,22.3,10,22.3,22.3
			C-219.9,315-230,325-242.3,325z M-242.3,282c-11.4,0-20.6,9.3-20.6,20.6c0,11.4,9.3,20.6,20.6,20.6c11.4,0,20.6-9.3,20.6-20.6
			C-221.6,291.3-230.9,282-242.3,282z"/>
		<polygon opacity="0.65" fill="#FFFFFF" points="-238.6,313.5 -253.6,313.5 -253.6,297.9 			"/>
		<path opacity="0.4" fill="#FFFFFF" d="M-230.9,297.9h-8.9c-0.4-1-1.3-1.7-2.5-1.7c-1.1,0-2.1,0.7-2.5,1.7h-8.9l11.4-11.8
			L-230.9,297.9z"/>
		<polygon opacity="0.5" fill="#FFFFFF" points="-230.9,297.9 -230.9,313.5 -238.6,313.5 -242.3,309.7 			"/>
		<path fill-rule="evenodd" clip-rule="evenodd" fill="#FFFFFF" d="M-237.8,298.7v2.1h-1.8v-2.1c0-0.3-0.1-0.6-0.2-0.9
			c-0.4-1-1.3-1.7-2.5-1.7c-1.1,0-2.1,0.7-2.5,1.7c-0.1,0.3-0.2,0.6-0.2,0.9v2.1h-1.8v-2.1c0-0.3,0-0.6,0.1-0.9
			c0.4-2,2.2-3.5,4.4-3.5c2.1,0,3.9,1.5,4.4,3.5C-237.9,298.1-237.8,298.4-237.8,298.7z"/>
		<path fill-rule="evenodd" clip-rule="evenodd" fill="#FFFFFF" d="M-248,301.3l0.1,2.6l4.5,4.7l0.3-2.3l0.1-0.6
			c-0.3-0.2-0.5-0.6-0.5-1c0-0.2,0-0.3,0.1-0.5c0.2-0.5,0.6-0.8,1.1-0.8c0.5,0,1,0.3,1.1,0.8c0.1,0.1,0.1,0.3,0.1,0.5
			c0,0.4-0.2,0.8-0.5,1l0.1,0.6l0.3,2.3l4.5-4.7l0.1-2.6H-248z"/>
	</g>
</svg>
